<svg xmlns="http://www.w3.org/2000/svg" viewBox="0 0 1200 675" role="img" aria-label="Illustration of Abbey Falls"><rect width="1200" height="675" fill="#f4efe3"/><rect y="410" width="1200" height="265" fill="#dce4d2"/><path d="M0 460 Q160 300 330 430 T650 410 T950 420 T1200 360 V675 H0Z" fill="#5d7957"/><path d="M610 170 Q680 210 690 310 L680 540 Q650 575 620 540 L610 310 Q610 220 610 170Z" fill="#b8d6d2"/><path d="M560 540 Q650 500 740 540 Q690 610 600 600Z" fill="#789da0"/><circle cx="930" cy="120" r="65" fill="#e8d89d"/><path d="M0 95 Q250 45 500 95 T1000 90 T1200 110" fill="none" stroke="#fff" stroke-width="18" opacity=".22"/></svg>